<svg width="69" height="54" viewBox="0 0 69 54" fill="none" xmlns="http://www.w3.org/2000/svg">
<path d="M10.35 54V28.5882H0L34.5 0L48.3 11.4353V3.17647H58.65V20.0118L69 28.5882H58.65V54H37.95V34.9412H31.05V54H10.35ZM17.25 47.6471H24.15V28.5882H44.85V47.6471H51.75V22.8706L34.5 8.57647L17.25 22.8706V47.6471ZM24.15 28.5882H44.85H24.15ZM27.6 22.3147H41.4C41.4 20.6206 40.71 19.2304 39.33 18.144C37.95 17.0598 36.34 16.5176 34.5 16.5176C32.66 16.5176 31.05 17.0598 29.67 18.144C28.29 19.2304 27.6 20.6206 27.6 22.3147Z" fill="white" fill-opacity="0.59"/>
</svg>
