<svg width="49" height="29" viewBox="0 0 49 29" fill="none" xmlns="http://www.w3.org/2000/svg">
<path d="M2.50319 6.69231C1.79395 6.69231 1.19986 6.47815 0.72092 6.04985C0.240307 5.62303 0 5.09359 0 4.46154C0 3.82949 0.240307 3.29931 0.72092 2.871C1.19986 2.44418 1.79395 2.23077 2.50319 2.23077H10.0128C10.722 2.23077 11.3169 2.44418 11.7975 2.871C12.2765 3.29931 12.516 3.82949 12.516 4.46154C12.516 5.09359 12.2765 5.62303 11.7975 6.04985C11.3169 6.47815 10.722 6.69231 10.0128 6.69231H2.50319ZM2.50319 17.8462C1.79395 17.8462 1.19986 17.632 0.72092 17.2037C0.240307 16.7769 0 16.2474 0 15.6154C0 14.9833 0.240307 14.4532 0.72092 14.0248C1.19986 13.598 1.79395 13.3846 2.50319 13.3846H10.0128C10.722 13.3846 11.3169 13.598 11.7975 14.0248C12.2765 14.4532 12.516 14.9833 12.516 15.6154C12.516 16.2474 12.2765 16.7769 11.7975 17.2037C11.3169 17.632 10.722 17.8462 10.0128 17.8462H2.50319ZM44.8071 27.4385L36.9221 20.4115C35.9208 21.0436 34.8261 21.5173 33.6379 21.8325C32.4481 22.1493 31.2482 22.3077 30.0383 22.3077C26.5756 22.3077 23.6243 21.2198 21.1845 19.0441C18.7431 16.8698 17.5223 14.2397 17.5223 11.1538C17.5223 8.06795 18.7431 5.43713 21.1845 3.26138C23.6243 1.08713 26.5756 0 30.0383 0C33.5011 0 36.4532 1.08713 38.8946 3.26138C41.3344 5.43713 42.5543 8.06795 42.5543 11.1538C42.5543 12.2321 42.3774 13.3013 42.0236 14.3617C41.6681 15.4206 41.1358 16.3962 40.4266 17.2885L48.3116 24.3154C48.7705 24.7244 49 25.2449 49 25.8769C49 26.509 48.7705 27.0295 48.3116 27.4385C47.8527 27.8474 47.2686 28.0519 46.5594 28.0519C45.8501 28.0519 45.2661 27.8474 44.8071 27.4385ZM30.0383 17.8462C32.1243 17.8462 33.8974 17.1955 35.3576 15.8942C36.8178 14.5929 37.5479 13.0128 37.5479 11.1538C37.5479 9.29487 36.8178 7.71474 35.3576 6.41346C33.8974 5.11218 32.1243 4.46154 30.0383 4.46154C27.9523 4.46154 26.1792 5.11218 24.719 6.41346C23.2588 7.71474 22.5287 9.29487 22.5287 11.1538C22.5287 13.0128 23.2588 14.5929 24.719 15.8942C26.1792 17.1955 27.9523 17.8462 30.0383 17.8462ZM2.50319 29C1.79395 29 1.19986 28.7858 0.72092 28.3575C0.240307 27.9307 0 27.4013 0 26.7692C0 26.1372 0.240307 25.6077 0.72092 25.1809C1.19986 24.7526 1.79395 24.5385 2.50319 24.5385H22.5287C23.238 24.5385 23.8329 24.7526 24.3135 25.1809C24.7925 25.6077 25.0319 26.1372 25.0319 26.7692C25.0319 27.4013 24.7925 27.9307 24.3135 28.3575C23.8329 28.7858 23.238 29 22.5287 29H2.50319Z" fill="black"/>
</svg>
